Coordinates
version=1
nRows=11
nColumns=42
inDegrees=yes

Units are S.I. units (second, meters, Newtons, ...)
If the header above contains a line with 'inDegrees', this indicates whether rotational values are in degrees (yes) or radians (no).

endheader
time	pelvis_tilt	pelvis_list	pelvis_rotation	pelvis_tx	pelvis_ty	pelvis_tz	hip_flexion_r	hip_adduction_r	hip_rotation_r	knee_angle_r	knee_adduction_r	knee_angle_r_beta	ankle_angle_r	subtalar_angle_r	mtp_angle_r	hip_flexion_l	hip_adduction_l	hip_rotation_l	knee_angle_l	knee_adduction_l	knee_angle_l_beta	ankle_angle_l	subtalar_angle_l	mtp_angle_l	lumbar_extension	lumbar_bending	lumbar_rotation	arm_flex_r	arm_add_r	arm_rot_r	elbow_flex_r	pro_sup_r	wrist_flex_r	wrist_dev_r	arm_flex_l	arm_add_l	arm_rot_l	elbow_flex_l	pro_sup_l	wrist_flex_l	wrist_dev_l
      1.65000000	     14.41872363	      3.28583478	      6.70761663	     -0.40675634	      0.88075415	     -0.03241658	     11.87709125	     -2.92072145	    -16.48767140	     33.53262460	     -1.06857133	      0.58525471	     10.75644350	     -8.25513428	     -7.55376758	    -20.88841845	     -3.92285095	    -19.20717825	     44.15922353	     -8.81666756	      0.77072385	      8.78661065	     28.04392952	     -7.55376758	    -32.01941741	     -0.86272894	     -6.43965013	     -3.75184644	     -6.18962405	    -45.40590281	     20.85166951	     90.00000001	      0.00000000	      0.00000000	     10.43228096	     -7.54271106	    -31.02384126	     34.49380549	     90.00000001	      0.00000000	      0.00000000
      1.66000000	     14.55372744	      3.11657420	      6.44203679	     -0.39731337	      0.88188314	     -0.03055397	     11.17939751	     -2.40106462	    -16.92366216	     33.59957241	     -1.53585718	      0.58642317	     11.51298734	     -7.47155676	     -7.55227217	    -20.18733254	     -3.97103588	    -18.23883145	     46.22426724	     -8.74688189	      0.80676566	      7.57990574	     24.58873349	     -7.55227217	    -32.13863783	     -0.78028843	     -6.11782798	     -3.34243047	     -6.36138046	    -44.72730255	     21.09755654	     90.00000001	      0.00000000	      0.00000000	     10.01086745	     -7.33341016	    -31.59929675	     34.28551608	     90.00000001	      0.00000000	      0.00000000
      1.67000000	     14.70880795	      2.99147282	      6.24599367	     -0.38803850	      0.88304345	     -0.02905034	     10.40704996	     -2.04351925	    -17.56141089	     33.63613294	     -1.91045459	      0.58706127	     12.50976436	     -6.52980763	     -7.55040310	    -19.38024492	     -3.94733097	    -17.48182112	     48.30316941	     -8.87445682	      0.84304935	      6.63285832	     21.49576072	     -7.55040310	    -32.30424753	     -0.66621125	     -5.90044883	     -2.90775043	     -6.57471939	    -43.87131460	     21.43806185	     90.00000001	      0.00000000	      0.00000000	      9.56211459	     -7.12637579	    -31.94868800	     34.07903936	     90.00000001	      0.00000000	      0.00000000
      1.68000000	     14.88764901	      2.88542320	      6.06379239	     -0.37898031	      0.88424992	     -0.02748133	      9.59726171	     -1.68598034	    -18.31136917	     33.59713388	     -2.38559358	      0.58638061	     13.41894077	     -5.32817051	     -7.54843270	    -18.54146535	     -3.89892675	    -16.55161379	     50.33861480	     -8.81904697	      0.87857457	      6.03134236	     18.14923063	     -7.54843270	    -32.51362927	     -0.58819596	     -5.66358976	     -2.47105385	     -6.74840359	    -42.83311888	     21.82778095	     90.00000001	      0.00000000	      0.00000000	      9.17416051	     -6.94436034	    -32.31261137	     33.86940756	     90.00000001	      0.00000000	      0.00000000
      1.69000000	     15.09109754	      2.81235728	      5.90148388	     -0.37007948	      0.88554425	     -0.02600425	      8.71238834	     -1.40612108	    -19.08558845	     33.47894169	     -2.77747366	      0.58431776	     14.33886996	     -4.12346055	     -7.54645066	    -17.64350805	     -3.81154684	    -15.65587220	     52.34207876	     -8.71742591	      0.91354161	      5.71383144	     14.72969580	     -7.54645066	    -32.76773866	     -0.53110454	     -5.46514887	     -2.02358944	     -6.93673935	    -41.65444614	     22.26408368	     90.00000001	      0.00000000	      0.00000000	      8.80736806	     -6.77819080	    -32.64022210	     33.64375650	     90.00000001	      0.00000000	      0.00000000
      1.70000000	     15.30695334	      2.75562436	      5.78546112	     -0.36130866	      0.88687423	     -0.02469696	      7.73430513	     -1.20085032	    -19.68237475	     33.25467416	     -2.92751589	      0.58040356	     15.17715418	     -3.27551244	     -7.54488485	    -16.68199599	     -3.71809322	    -15.04621026	     54.21673617	     -8.79477134	      0.94626056	      5.90235673	     11.68103452	     -7.54488485	    -33.04254684	     -0.46524786	     -5.31721237	     -1.51642707	     -7.12430474	    -40.60727319	     22.72749440	     90.00000001	      0.00000000	      0.00000000	      8.44253954	     -6.60608725	    -32.84154608	     33.41572339	     90.00000001	      0.00000000	      0.00000000
      1.71000000	     15.58800418	      2.85455535	      5.67405925	     -0.35286747	      0.88843797	     -0.02339552	      6.73793178	     -1.15655098	    -20.32743121	     33.11692578	     -3.19895978	      0.57799939	     15.84313961	     -2.11265591	     -7.54215668	    -15.77893281	     -3.37551046	    -13.73427700	     55.96209925	     -8.33969254	      0.97672289	      5.70906093	      7.64864733	     -7.54215668	    -33.44731586	     -0.54961843	     -5.21972403	     -1.11261810	     -7.29730309	    -38.67158761	     23.34410072	     90.00000001	      0.00000000	      0.00000000	      8.18431703	     -6.49987455	    -33.18137436	     33.18250727	     90.00000001	      0.00000000	      0.00000000
      1.72000000	     15.84171862	      2.83138224	      5.57667759	     -0.34450683	      0.88990597	     -0.02207018	      5.69165452	     -0.94633268	    -20.53020067	     32.80990628	     -3.21005924	      0.57264089	     16.43994115	     -1.60835069	     -7.53946182	    -14.74309034	     -3.22175295	    -12.88800736	     57.62205219	     -8.11125775	      1.00569453	      6.05752976	      4.38556031	     -7.53946182	    -33.80419943	     -0.52427947	     -5.06922724	     -0.63288196	     -7.48952881	    -37.04141748	     23.93238476	     90.00000001	      0.00000000	      0.00000000	      7.90794423	     -6.37922063	    -33.34687960	     32.96707564	     90.00000001	      0.00000000	      0.00000000
      1.73000000	     16.10611806	      2.75600763	      5.45275503	     -0.33624000	      0.89136286	     -0.02069908	      4.58678549	     -0.66337510	    -20.39099354	     32.40070355	     -3.03680606	      0.56549896	     17.01004326	     -1.41789585	     -7.53845278	    -13.66942076	     -3.15438912	    -12.49994964	     59.08782662	     -8.13651947	      1.03127712	      7.06749980	      2.27109291	     -7.53845278	    -34.16298761	     -0.46493447	     -4.85668850	      0.02857022	     -7.64007829	    -36.30951601	     24.39439601	     90.00000001	      0.00000000	      0.00000000	      7.62433602	     -6.27840186	    -33.35523736	     32.75577845	     90.00000001	      0.00000000	      0.00000000
      1.74000000	     16.37061859	      2.72057726	      5.40430687	     -0.32809924	      0.89285550	     -0.01938047	      3.44879487	     -0.43140754	    -20.23524280	     31.94309828	     -2.79410053	      0.55751224	     17.43909499	     -1.32364353	     -7.53762164	    -12.56546097	     -3.02456582	    -11.87591537	     60.37683982	     -8.03389880	      1.05377465	      8.03373020	     -0.02069666	     -7.53762164	    -34.52664574	     -0.43122740	     -4.70728734	      0.69037603	     -7.73288455	    -35.44568664	     24.88698587	     90.00000001	      0.00000000	      0.00000000	      7.38931794	     -6.21324986	    -33.36671447	     32.52678177	     90.00000001	      0.00000000	      0.00000000
      1.75000000	     16.62981874	      2.78735718	      5.33901215	     -0.32059830	      0.89451146	     -0.01819889	      2.38077737	     -0.28166735	    -19.86715139	     31.51436034	     -2.60883650	      0.55002935	     17.45474839	     -1.75116194	     -7.53508714	    -11.38860343	     -2.74684635	    -10.08137693	     61.64991056	     -6.80711969	      1.07599392	      7.45355211	     -4.27028880	     -7.53508714	    -34.99235317	     -0.49307110	     -4.59341244	      1.09942474	     -8.03022210	    -32.63208830	     25.72617496	     90.00000001	      0.00000000	      0.00000000	      7.28041945	     -6.10207175	    -33.56157116	     32.34028555	     90.00000001	      0.00000000	      0.00000000
